Coordinates
nRows=11
nColumns=24

# SIMM Motion File Header:
name Coordinates
datacolumns 24
datarows 11
otherdata 1
range 0.87500000000000000000 0.88500000000000001000

Units are S.I. units (second, meters, Newtons, ...)
Angles are in degrees.

endheader
time	pelvis_tx	pelvis_ty	pelvis_tz	pelvis_tilt	pelvis_list	pelvis_rotation	hip_flexion_r	hip_adduction_r	hip_rotation_r	knee_angle_r	ankle_angle_r	subtalar_angle_r	mtp_angle_r	hip_flexion_l	hip_adduction_l	hip_rotation_l	knee_angle_l	ankle_angle_l	subtalar_angle_l	mtp_angle_l	lumbar_extension	lumbar_bending	lumbar_rotation
      0.87500000000000000000	      0.61265687785153877000	      1.01998927119749560000	      0.03071616031276860500	      4.82192921127943740000	     -1.52730059835203760000	      3.15620221360443410000	      9.58385284432774220000	      2.05056456986752570000	     -6.94933442182298930000	    -20.19798960893782400000	      5.54343612089786310000	      0.00041735834895319858	      0.03476189694365860300	      5.93379259049426900000	     -6.08074971377837770000	     -3.40666542018754010000	    -67.40901959103392500000	     -4.87958612223021590000	      0.00453863200499555860	      0.02950918784358982200	    -15.26296042639608600000	      4.68881037370148230000	     -3.51959042076842010000
      0.87600000000000000000	      0.61262323312703437000	      1.02017435926267730000	      0.03090699681645846200	      4.82715303190097080000	     -1.52703595244067820000	      3.14351163335100780000	      9.47379460886295810000	      2.07226816085385670000	     -6.93361437546234600000	    -20.11976225249462800000	      5.56287334039641570000	      0.00094373428466768884	      0.03400826373001100000	      6.07375552584729040000	     -6.09821565070911030000	     -3.43791068880618190000	    -67.50211953991735900000	     -4.80580216863134880000	      0.00450615872526418090	      0.02949814191291492600	    -15.26770025429006600000	      4.67937955696002560000	     -3.48150868411582960000
      0.87700000000000000000	      0.61258895751559106000	      1.02035913530367630000	      0.03109679304638665600	      4.83237175444655610000	     -1.52625358267477700000	      3.13054018723794770000	      9.36363125946061640000	      2.09332198822931260000	     -6.91738245510066020000	    -20.04117292463512700000	      5.58209205604080250000	      0.00147888160459269470	      0.03324394238410815400	      6.21294084775353640000	     -6.11435452660130090000	     -3.46817993314468830000	    -67.59201954205772700000	     -4.73062033138393010000	      0.00447329739750794950	      0.02948425926102471500	    -15.27251127415513200000	      4.66936006025193340000	     -3.44337771808281220000
      0.87800000000000000000	      0.61255404921238010000	      1.02054356594072090000	      0.03128553859757485200	      4.83758343264052120000	     -1.52495656731191120000	      3.11728685604775180000	      9.25337042450135170000	      2.11372636628730510000	     -6.90064010969869910000	    -19.96223695563806200000	      5.60110721883766600000	      0.00202371620210860420	      0.03246963776586507500	      6.35135615535768850000	     -6.12916423260610090000	     -3.49747100364654310000	    -67.67873452380767700000	     -4.65410242920853180000	      0.00444005298151316060	      0.02946759572092197400	    -15.27739203763361800000	      4.65875758798885360000	     -3.40519948188558530000
      0.87900000000000000000	      0.61251850633571459000	      1.02072761743664800000	      0.03147322352156165700	      4.84278615411065430000	     -1.52314817754898950000	      3.10375083979859130000	      9.14301966034303070000	      2.13348180969610230000	     -6.88338926228724990000	    -19.88296933399927000000	      5.61993220713979460000	      0.00258204933845271190	      0.03168866861750036000	      6.48900915657748460000	     -6.14264343828049150000	     -3.52578238556621360000	    -67.76227958305021600000	     -4.57631026252121400000	      0.00440639303971702370	      0.02944821220959160900	    -15.28234111476448300000	      4.64757799084570420000	     -3.36697607140721500000
      0.88000000000000000000	      0.61248232649046774000	      1.02091125727338070000	      0.03165983860458787500	      4.84797802180502660000	     -1.52083205370220420000	      3.08993146538524500000	      9.03258666200016510000	      2.15258935965402950000	     -6.86563219455430310000	    -19.80338548815925700000	      5.63858170753716780000	      0.00315470134508343950	      0.03090163351112036600	      6.62590766051517570000	     -6.15479182454492510000	     -3.55311331153334380000	    -67.84266999940557200000	     -4.49730554104012990000	      0.00437232350368837310	      0.02942616347033692700	    -15.28735711016052100000	      4.63582741674232150000	     -3.32870957822810130000
      0.88100000000000001000	      0.61244550675949294000	      1.02109445439887340000	      0.03184537534994315300	      4.85315715795958270000	     -1.51801219061728410000	      3.07582819267914690000	      8.92207924496753970000	      2.17105055501014200000	     -6.84737155265471300000	    -19.72350122983750600000	      5.65707159430768500000	      0.00373994780741110280	      0.03010662044265817800	      6.76205955559149880000	     -6.16561006383718800000	     -3.57946375408831760000	    -67.91992121230218500000	     -4.41714984340036310000	      0.00433788383547637800	      0.02940149870337924900	    -15.29243866676992500000	      4.62351229444856760000	     -3.29040209773696860000
      0.88200000000000001000	      0.61240804398883686000	      1.02127717827718320000	      0.03202982584832769800	      4.85832171952978340000	     -1.51469284417956440000	      3.06144066265151120000	      8.81150522965748100000	      2.18886726579564210000	     -6.82861040878964150000	    -19.64333236443883000000	      5.67541743880456370000	      0.00433645540117851180	      0.02930193152868008200	      6.89747278738153820000	     -6.17509969938480550000	     -3.60483436831337170000	    -67.99404878380461500000	     -4.33590458941763580000	      0.00430310957127288080	      0.02937426696771536600	    -15.29758446041342200000	      4.61063925266771870000	     -3.25205579989785100000
      0.88300000000000001000	      0.61236993503643722000	      1.02145939805079560000	      0.03221318270331932600	      4.86346990938492500000	     -1.51087846269895600000	      3.04676873094014540000	      8.70087236196730450000	      2.20604157155713310000	     -6.80935228877169420000	    -19.56289437526111300000	      5.69363332649681290000	      0.00494513286794091320	      0.02848816313989543900	      7.03215534191456280000	     -6.18326305561416230000	     -3.62922645262269890000	    -68.06506836527052000000	     -4.25363100836219750000	      0.00426800535111731760	      0.02934452115446855400	    -15.30279319304036500000	      4.59721505934798550000	     -3.21367297951121070000
      0.88400000000000001000	      0.61233117673067639000	      1.02164108280857600000	      0.03239543903367925900	      4.86859997790825890000	     -1.50657368280252850000	      3.03181246813098680000	      8.59018830370943400000	      2.22257575236610940000	     -6.78960116838030460000	    -19.48220240841526900000	      5.71173172609500670000	      0.00556907923554341750	      0.02766838941847578300	      7.16611522530575500000	     -6.19010323122760560000	     -3.65264195010137630000	    -68.13299567778581400000	     -4.17039009713481870000	      0.00423254463999146300	      0.02931231821048273200	    -15.30806359672872600000	      4.58324661449954450000	     -3.17525605551738810000
      0.88500000000000001000	      0.61229176547759501000	      1.02182220295276700000	      0.03257658868867647400	      4.87371020703417200000	     -1.50178348080285100000	      3.01657208029172220000	      8.47946081423780920000	      2.23847257309311450000	     -6.76936138756147000000	    -19.40127199110987600000	      5.72972626148552330000	      0.00620883248070639060	      0.02684314244552042000	      7.29936045246820790000	     -6.19562430395595150000	     -3.67508354203356190000	    -68.19784651923447400000	     -4.08624255260270350000	      0.00419673513029596240	      0.02927770977309968400	    -15.31339444987075600000	      4.56874108282497020000	     -3.13680744816036450000
